<?xml version="1.0" encoding="UTF-8" standalone="no"?>
<!-- Created with Inkscape (http://www.inkscape.org/) -->

<svg
   width="64"
   height="64"
   viewBox="0 0 16.933333 16.933333"
   version="1.1"
   id="svg1"
   xml:space="preserve"
   inkscape:version="1.4.3 (0d15f75, 2025-12-25)"
   sodipodi:docname="safe.svg"
   inkscape:export-filename="..\assets\safe.png"
   inkscape:export-xdpi="96"
   inkscape:export-ydpi="96"
   xmlns:inkscape="http://www.inkscape.org/namespaces/inkscape"
   xmlns:sodipodi="http://sodipodi.sourceforge.net/DTD/sodipodi-0.dtd"
   xmlns:xlink="http://www.w3.org/1999/xlink"
   xmlns="http://www.w3.org/2000/svg"
   xmlns:svg="http://www.w3.org/2000/svg"><sodipodi:namedview
     id="namedview1"
     pagecolor="#ffffff"
     bordercolor="#000000"
     borderopacity="0.25"
     inkscape:showpageshadow="2"
     inkscape:pageopacity="0.0"
     inkscape:pagecheckerboard="0"
     inkscape:deskcolor="#d1d1d1"
     inkscape:document-units="mm"
     inkscape:zoom="2.0581571"
     inkscape:cx="68.022018"
     inkscape:cy="25.994128"
     inkscape:window-width="1512"
     inkscape:window-height="793"
     inkscape:window-x="-8"
     inkscape:window-y="-8"
     inkscape:window-maximized="1"
     inkscape:current-layer="svg1"
     showguides="true" /><defs
     id="defs1"><linearGradient
       id="linearGradient8"
       inkscape:collect="always"><stop
         style="stop-color:#525252;stop-opacity:1;"
         offset="0"
         id="stop7" /><stop
         style="stop-color:#ffffff;stop-opacity:1;"
         offset="1"
         id="stop8" /></linearGradient><linearGradient
       id="linearGradient229"
       inkscape:collect="always"><stop
         style="stop-color:#ffffff;stop-opacity:1;"
         offset="0"
         id="stop229" /><stop
         style="stop-color:#ffd700;stop-opacity:0;"
         offset="1"
         id="stop230" /></linearGradient><linearGradient
       id="linearGradient227"
       inkscape:collect="always"><stop
         style="stop-color:#000000;stop-opacity:1;"
         offset="0"
         id="stop227" /><stop
         style="stop-color:#0057b8;stop-opacity:0;"
         offset="1"
         id="stop228" /></linearGradient><linearGradient
       id="linearGradient100"
       inkscape:collect="always"><stop
         style="stop-color:#525252;stop-opacity:1;"
         offset="0"
         id="stop100" /><stop
         style="stop-color:#525252;stop-opacity:0;"
         offset="1"
         id="stop101" /></linearGradient><inkscape:path-effect
       effect="fillet_chamfer"
       id="path-effect99"
       is_visible="true"
       lpeversion="1"
       nodesatellites_param="F,0,0,1,0,0,0,1 @ F,0,0,1,0,0.12988126,0,1 @ F,0,0,1,0,0.53088651,0,1 @ F,0,0,1,0,0.53088651,0,1 @ F,0,0,1,0,0,0,1"
       radius="0"
       unit="px"
       method="auto"
       mode="F"
       chamfer_steps="1"
       flexible="false"
       use_knot_distance="true"
       apply_no_radius="true"
       apply_with_radius="true"
       only_selected="false"
       hide_knots="false" /><inkscape:path-effect
       effect="fillet_chamfer"
       id="path-effect97"
       is_visible="true"
       lpeversion="1"
       nodesatellites_param="F,0,0,1,0,0,0,1 @ F,0,0,1,0,0.12988126,0,1 @ F,0,0,1,0,0.53088651,0,1 @ F,0,0,1,0,0.53088651,0,1 @ F,0,0,1,0,0,0,1"
       radius="0"
       unit="px"
       method="auto"
       mode="F"
       chamfer_steps="1"
       flexible="false"
       use_knot_distance="true"
       apply_no_radius="true"
       apply_with_radius="true"
       only_selected="false"
       hide_knots="false" /><linearGradient
       id="linearGradient84"
       inkscape:collect="always"><stop
         style="stop-color:#ff5b3c;stop-opacity:1;"
         offset="0"
         id="stop84" /><stop
         style="stop-color:#ff4400;stop-opacity:1;"
         offset="1"
         id="stop85" /></linearGradient><linearGradient
       id="linearGradient82"
       inkscape:collect="always"><stop
         style="stop-color:#ff9433;stop-opacity:1;"
         offset="0"
         id="stop82" /><stop
         style="stop-color:#ff5700;stop-opacity:1;"
         offset="1"
         id="stop83" /></linearGradient><linearGradient
       id="linearGradient80"
       inkscape:collect="always"><stop
         style="stop-color:#ffe96e;stop-opacity:0.54621851;"
         offset="0"
         id="stop80" /><stop
         style="stop-color:#ff8700;stop-opacity:1;"
         offset="1"
         id="stop81" /></linearGradient><inkscape:path-effect
       effect="fillet_chamfer"
       id="path-effect49"
       is_visible="true"
       lpeversion="1"
       nodesatellites_param="F,0,0,1,0,0,0,1 @ F,0,0,1,0,0.12988126,0,1 @ F,0,0,1,0,0.53088651,0,1 @ F,0,0,1,0,0.53088651,0,1 @ F,0,0,1,0,0,0,1"
       radius="0"
       unit="px"
       method="auto"
       mode="F"
       chamfer_steps="1"
       flexible="false"
       use_knot_distance="true"
       apply_no_radius="true"
       apply_with_radius="true"
       only_selected="false"
       hide_knots="false" /><inkscape:path-effect
       effect="fillet_chamfer"
       id="path-effect47"
       is_visible="true"
       lpeversion="1"
       nodesatellites_param="F,0,0,1,0,0,0,1 @ F,0,0,1,0,0.12988126,0,1 @ F,0,0,1,0,0.53088651,0,1 @ F,0,0,1,0,0.53088651,0,1 @ F,0,0,1,0,0,0,1"
       radius="0"
       unit="px"
       method="auto"
       mode="F"
       chamfer_steps="1"
       flexible="false"
       use_knot_distance="true"
       apply_no_radius="true"
       apply_with_radius="true"
       only_selected="false"
       hide_knots="false" /><inkscape:path-effect
       effect="fillet_chamfer"
       id="path-effect42"
       is_visible="true"
       lpeversion="1"
       nodesatellites_param="F,0,0,1,0,0,0,1 @ F,0,0,1,0,0.12988126,0,1 @ F,0,0,1,0,0.53088651,0,1 @ F,0,0,1,0,0.53088651,0,1 @ F,0,0,1,0,0,0,1"
       radius="0"
       unit="px"
       method="auto"
       mode="F"
       chamfer_steps="1"
       flexible="false"
       use_knot_distance="true"
       apply_no_radius="true"
       apply_with_radius="true"
       only_selected="false"
       hide_knots="false" /><inkscape:path-effect
       effect="fillet_chamfer"
       id="path-effect40"
       is_visible="true"
       lpeversion="1"
       nodesatellites_param="F,0,0,1,0,0,0,1 @ F,0,0,1,0,0.12988126,0,1 @ F,0,0,1,0,0.53088651,0,1 @ F,0,0,1,0,0.53088651,0,1 @ F,0,0,1,0,0,0,1"
       radius="0"
       unit="px"
       method="auto"
       mode="F"
       chamfer_steps="1"
       flexible="false"
       use_knot_distance="true"
       apply_no_radius="true"
       apply_with_radius="true"
       only_selected="false"
       hide_knots="false" /><inkscape:path-effect
       effect="fillet_chamfer"
       id="path-effect34"
       is_visible="true"
       lpeversion="1"
       nodesatellites_param="F,0,0,1,0,0,0,1 @ F,0,0,1,0,0.12988126,0,1 @ F,0,0,1,0,0.53088651,0,1 @ F,0,0,1,0,0.53088651,0,1 @ F,0,0,1,0,0,0,1"
       radius="0"
       unit="px"
       method="auto"
       mode="F"
       chamfer_steps="1"
       flexible="false"
       use_knot_distance="true"
       apply_no_radius="true"
       apply_with_radius="true"
       only_selected="false"
       hide_knots="false" /><inkscape:path-effect
       effect="fillet_chamfer"
       id="path-effect32"
       is_visible="true"
       lpeversion="1"
       nodesatellites_param="F,0,0,1,0,0,0,1 @ F,0,0,1,0,0.12988126,0,1 @ F,0,0,1,0,0.53088651,0,1 @ F,0,0,1,0,0.53088651,0,1 @ F,0,0,1,0,0,0,1"
       radius="0"
       unit="px"
       method="auto"
       mode="F"
       chamfer_steps="1"
       flexible="false"
       use_knot_distance="true"
       apply_no_radius="true"
       apply_with_radius="true"
       only_selected="false"
       hide_knots="false" /><inkscape:path-effect
       effect="fillet_chamfer"
       id="path-effect15"
       is_visible="true"
       lpeversion="1"
       nodesatellites_param="F,0,0,1,0,0,0,1 @ F,0,0,1,0,0.12988126,0,1 @ F,0,0,1,0,0.53088651,0,1 @ F,0,0,1,0,0.53088651,0,1 @ F,0,0,1,0,0,0,1"
       radius="0"
       unit="px"
       method="auto"
       mode="F"
       chamfer_steps="1"
       flexible="false"
       use_knot_distance="true"
       apply_no_radius="true"
       apply_with_radius="true"
       only_selected="false"
       hide_knots="false" /><inkscape:path-effect
       effect="fillet_chamfer"
       id="path-effect13"
       is_visible="true"
       lpeversion="1"
       nodesatellites_param="F,0,0,1,0,0,0,1 @ F,0,0,1,0,0.12988126,0,1 @ F,0,0,1,0,0.53088651,0,1 @ F,0,0,1,0,0.53088651,0,1 @ F,0,0,1,0,0,0,1"
       radius="0"
       unit="px"
       method="auto"
       mode="F"
       chamfer_steps="1"
       flexible="false"
       use_knot_distance="true"
       apply_no_radius="true"
       apply_with_radius="true"
       only_selected="false"
       hide_knots="false" /><inkscape:path-effect
       effect="fillet_chamfer"
       id="path-effect6"
       is_visible="true"
       lpeversion="1"
       nodesatellites_param="F,0,0,1,0,0,0,1 @ F,0,0,1,0,0.16205605,0,1 @ F,0,0,1,0,0,0,1 @ F,0,0,1,0,0.60524661,0,1 @ F,0,0,1,0,0,0,1"
       radius="0"
       unit="px"
       method="auto"
       mode="F"
       chamfer_steps="1"
       flexible="false"
       use_knot_distance="true"
       apply_no_radius="true"
       apply_with_radius="true"
       only_selected="false"
       hide_knots="false" /><inkscape:path-effect
       effect="bspline"
       id="path-effect5"
       is_visible="true"
       lpeversion="1.3"
       weight="33.333333"
       steps="2"
       helper_size="0"
       apply_no_weight="true"
       apply_with_weight="true"
       only_selected="false"
       uniform="false" /><inkscape:path-effect
       effect="bspline"
       id="path-effect4"
       is_visible="true"
       lpeversion="1.3"
       weight="33.333333"
       steps="2"
       helper_size="0"
       apply_no_weight="true"
       apply_with_weight="true"
       only_selected="false"
       uniform="false" /><inkscape:path-effect
       effect="bspline"
       id="path-effect3"
       is_visible="true"
       lpeversion="1.3"
       weight="33.333333"
       steps="2"
       helper_size="0"
       apply_no_weight="true"
       apply_with_weight="true"
       only_selected="false"
       uniform="false" /><inkscape:path-effect
       effect="bspline"
       id="path-effect2"
       is_visible="true"
       lpeversion="1.3"
       weight="33.333333"
       steps="2"
       helper_size="0"
       apply_no_weight="true"
       apply_with_weight="true"
       only_selected="false"
       uniform="false" /><inkscape:path-effect
       effect="bspline"
       id="path-effect1"
       is_visible="true"
       lpeversion="1.3"
       weight="33.333333"
       steps="2"
       helper_size="0"
       apply_no_weight="true"
       apply_with_weight="true"
       only_selected="false"
       uniform="false" /><filter
       style="color-interpolation-filters:sRGB"
       inkscape:label="Drop Shadow"
       id="filter78"
       x="-0.18121593"
       y="-0.1581748"
       width="1.3795277"
       height="1.3312716"><feFlood
         result="flood"
         in="SourceGraphic"
         flood-opacity="0.498039"
         flood-color="rgb(0,0,0)"
         id="feFlood77" /><feGaussianBlur
         result="blur"
         in="SourceGraphic"
         stdDeviation="0.100000"
         id="feGaussianBlur77" /><feOffset
         result="offset"
         in="blur"
         dx="0.100000"
         dy="0.100000"
         id="feOffset77" /><feComposite
         result="comp1"
         operator="in"
         in="flood"
         in2="offset"
         id="feComposite77" /><feComposite
         result="fbSourceGraphic"
         operator="over"
         in="SourceGraphic"
         in2="comp1"
         id="feComposite78" /><feColorMatrix
         result="fbSourceGraphicAlpha"
         in="fbSourceGraphic"
         values="0 0 0 -1 0 0 0 0 -1 0 0 0 0 -1 0 0 0 0 1 0"
         id="feColorMatrix78" /><feFlood
         id="feFlood78"
         result="flood"
         in="fbSourceGraphic"
         flood-opacity="0.498039"
         flood-color="rgb(0,0,0)" /><feGaussianBlur
         id="feGaussianBlur78"
         result="blur"
         in="fbSourceGraphic"
         stdDeviation="0.100000" /><feOffset
         id="feOffset78"
         result="offset"
         in="blur"
         dx="0.100000"
         dy="0.100000" /><feComposite
         id="feComposite79"
         result="comp1"
         operator="in"
         in="flood"
         in2="offset" /><feComposite
         id="feComposite80"
         result="fbSourceGraphic"
         operator="over"
         in="fbSourceGraphic"
         in2="comp1" /><feColorMatrix
         result="fbSourceGraphicAlpha"
         in="fbSourceGraphic"
         values="0 0 0 -1 0 0 0 0 -1 0 0 0 0 -1 0 0 0 0 1 0"
         id="feColorMatrix101" /><feFlood
         id="feFlood101"
         result="flood"
         in="fbSourceGraphic"
         flood-opacity="0.498039"
         flood-color="rgb(0,0,0)" /><feGaussianBlur
         id="feGaussianBlur101"
         result="blur"
         in="fbSourceGraphic"
         stdDeviation="0.100000" /><feOffset
         id="feOffset101"
         result="offset"
         in="blur"
         dx="0.000000"
         dy="0.000000" /><feComposite
         id="feComposite101"
         result="comp1"
         operator="in"
         in="flood"
         in2="offset" /><feComposite
         id="feComposite102"
         result="fbSourceGraphic"
         operator="over"
         in="fbSourceGraphic"
         in2="comp1" /><feColorMatrix
         result="fbSourceGraphicAlpha"
         in="fbSourceGraphic"
         values="0 0 0 -1 0 0 0 0 -1 0 0 0 0 -1 0 0 0 0 1 0"
         id="feColorMatrix104" /><feFlood
         id="feFlood104"
         result="flood"
         in="fbSourceGraphic"
         flood-opacity="0.498039"
         flood-color="rgb(0,0,0)" /><feGaussianBlur
         id="feGaussianBlur104"
         result="blur"
         in="fbSourceGraphic"
         stdDeviation="0.100000" /><feOffset
         id="feOffset104"
         result="offset"
         in="blur"
         dx="-0.100000"
         dy="-0.100000" /><feComposite
         id="feComposite104"
         result="comp1"
         operator="in"
         in="flood"
         in2="offset" /><feComposite
         id="feComposite105"
         result="comp2"
         operator="over"
         in="fbSourceGraphic"
         in2="comp1" /></filter><linearGradient
       inkscape:collect="always"
       xlink:href="#linearGradient8"
       id="linearGradient101"
       x1="13.423195"
       y1="9.4293089"
       x2="-7.3927441"
       y2="2.8339629"
       gradientUnits="userSpaceOnUse"
       gradientTransform="matrix(0.82519682,0.82519682,-0.82519682,0.82519682,6.0736302,-4.406229)" /><filter
       style="color-interpolation-filters:sRGB"
       inkscape:label="Drop Shadow"
       id="filter159"
       x="-0.15383698"
       y="-0.064019382"
       width="1.9411203"
       height="1.1280388"><feFlood
         result="flood"
         in="SourceGraphic"
         flood-opacity="0.458824"
         flood-color="rgb(255,255,255)"
         id="feFlood158" /><feGaussianBlur
         result="blur"
         in="SourceGraphic"
         stdDeviation="0.100000"
         id="feGaussianBlur158" /><feOffset
         result="offset"
         in="blur"
         dx="-0.200000"
         dy="0.000000"
         id="feOffset158" /><feComposite
         result="comp1"
         operator="out"
         in="flood"
         in2="offset"
         id="feComposite158" /><feComposite
         result="fbSourceGraphic"
         operator="atop"
         in="comp1"
         in2="SourceGraphic"
         id="feComposite159" /><feColorMatrix
         result="fbSourceGraphicAlpha"
         in="fbSourceGraphic"
         values="0 0 0 -1 0 0 0 0 -1 0 0 0 0 -1 0 0 0 0 1 0"
         id="feColorMatrix198" /><feFlood
         id="feFlood198"
         result="flood"
         in="fbSourceGraphic"
         flood-opacity="0.058824"
         flood-color="rgb(255,255,255)" /><feGaussianBlur
         id="feGaussianBlur198"
         result="blur"
         in="fbSourceGraphic"
         stdDeviation="0.100000" /><feOffset
         id="feOffset198"
         result="offset"
         in="blur"
         dx="3.000000"
         dy="-0.000000" /><feComposite
         id="feComposite198"
         result="comp1"
         operator="out"
         in="flood"
         in2="offset" /><feComposite
         id="feComposite199"
         result="comp2"
         operator="atop"
         in="comp1"
         in2="fbSourceGraphic" /></filter><linearGradient
       inkscape:collect="always"
       xlink:href="#linearGradient100"
       id="linearGradient101-8"
       x1="13.423195"
       y1="9.4293089"
       x2="-7.3927441"
       y2="2.8339629"
       gradientUnits="userSpaceOnUse" /><linearGradient
       inkscape:collect="always"
       xlink:href="#linearGradient84"
       id="linearGradient85-7"
       x1="5.1951246"
       y1="3.6436446"
       x2="7.9290261"
       y2="10.20153"
       gradientUnits="userSpaceOnUse" /><linearGradient
       inkscape:collect="always"
       xlink:href="#linearGradient82"
       id="linearGradient83-7"
       x1="4.9736829"
       y1="3.6927619"
       x2="7.2186689"
       y2="8.6025934"
       gradientUnits="userSpaceOnUse" /><linearGradient
       inkscape:collect="always"
       xlink:href="#linearGradient80"
       id="linearGradient81-9"
       x1="4.4763465"
       y1="3.8329372"
       x2="5.9706211"
       y2="6.6826992"
       gradientUnits="userSpaceOnUse" /><linearGradient
       inkscape:collect="always"
       xlink:href="#linearGradient229"
       id="linearGradient233-1"
       gradientUnits="userSpaceOnUse"
       x1="0.045914657"
       y1="33.375244"
       x2="7.4350467"
       y2="47.790489"
       gradientTransform="translate(3.4252093,-33.5132)" /><linearGradient
       inkscape:collect="always"
       xlink:href="#linearGradient227"
       id="linearGradient234-3"
       gradientUnits="userSpaceOnUse"
       x1="-4.1581068"
       y1="20.605505"
       x2="8.6209612"
       y2="44.308201"
       gradientTransform="translate(3.4252093,-33.5132)" /></defs><path
     d="m 10.933334,4.9333335 q 0.826171,0 1.593749,0.2167968 0.767578,0.2109376 1.429688,0.6035158 0.667969,0.3925784 1.21289,0.9433593 0.550782,0.5449217 0.94336,1.212891 0.392578,0.66211 0.603515,1.429688 0.216797,0.7675776 0.216797,1.5937496 0,0.826172 -0.216797,1.59375 -0.210937,0.767578 -0.603515,1.435547 -0.392578,0.662108 -0.94336,1.21289 -0.544921,0.544922 -1.21289,0.9375 -0.66211,0.392578 -1.429688,0.609375 -0.767578,0.210937 -1.593749,0.210937 -0.826171,0 -1.5937493,-0.210937 Q 8.5720059,16.505599 7.9040372,16.113021 7.2419277,15.720443 6.6911469,15.175521 6.1462252,14.624739 5.7536465,13.962631 5.3610687,13.294662 5.1442717,12.527084 4.9333339,11.759506 4.9333339,10.933334 q 0,-0.826172 0.2109378,-1.5937496 0.216797,-0.767578 0.6093748,-1.429688 Q 6.1462252,7.2419271 6.6911469,6.6970054 7.2419277,6.1462245 7.9040372,5.7536461 8.5720059,5.3610679 9.3395847,5.1501303 10.107163,4.9333335 10.933334,4.9333335 Z m 3.533202,4.0136719 -0.796874,-0.796875 -3.8613275,3.8613276 -1.6113287,-1.611327 -0.7968749,0.796875 2.4082036,2.408203 z"
     id="text3"
     style="font-size:14.1111px;line-height:0;font-family:Fraunces;-inkscape-font-specification:Fraunces;fill:#008000;stroke-width:0.27723;stroke-linecap:square;stroke-linejoin:round"
     aria-label="" /><g
     inkscape:label="Шар 1"
     inkscape:groupmode="layer"
     id="layer1"
     style="display:inline"><path
       id="path42"
       style="fill:url(#linearGradient101);stroke:none;stroke-width:0.174018;stroke-linecap:square;stroke-linejoin:round;stroke-dasharray:none;opacity:1"
       d="M 3.4041243,0.39429112 A 0.15157202,0.15157202 0 0 0 3.2974016,0.43915542 L 1.8678686,1.868009 0.43901492,3.2975424 a 0.15157202,0.15157202 0 0 0 0,0.2141242 L 1.745512,4.8181637 A 1.4840133,1.4840133 0 0 1 2.1798781,5.8758688 L 2.166963,8.2475481 a 0.25460525,0.25460525 0 0 0 0.4343657,0.181496 L 5.5154561,5.5155965 8.4289037,2.6014691 A 0.25460525,0.25460525 0 0 0 8.2474081,2.167103 L 5.8757284,2.1800184 A 1.4840133,1.4840133 0 0 1 4.8180233,1.7456524 L 3.5115262,0.43915533 A 0.15157202,0.15157202 0 0 0 3.4041243,0.39429112 Z" /><g
       id="g236-1"
       style="display:inline"
       transform="matrix(1.3154142,0,0,1.3154142,-7.9275746,-20.263585)"><path
         id="path42-4"
         style="fill:url(#linearGradient101-8);stroke:none;stroke-width:0.149115;stroke-linecap:square;stroke-linejoin:round;stroke-dasharray:none"
         d="m 1.2912157,4.5262087 a 0.12988126,0.12988126 0 0 0 -0.037481,0.091849 L 1.2533231,6.35 1.2537349,8.0819426 A 0.12988126,0.12988126 0 0 0 1.3834762,8.2116839 H 2.9667313 A 1.2716431,1.2716431 0 0 1 3.8708012,8.589375 l 1.4292131,1.444864 A 0.21816989,0.21816989 17.61272 0 0 5.6731748,9.8810212 L 5.6735867,6.35 5.6731748,2.8189787 A 0.21816989,0.21816989 17.61272 0 0 5.3000143,2.6657605 L 3.8708012,4.1106249 A 1.2716431,1.2716431 0 0 1 2.9667313,4.4883161 H 1.3834762 a 0.12988126,0.12988126 0 0 0 -0.092261,0.037893 z"
         transform="matrix(0.6273285,0.6273285,-0.6273285,0.6273285,4.7119269,-3.255145)" /><path
         id="path44-7"
         style="display:inline;fill:none;fill-opacity:1;stroke:url(#linearGradient85-7);stroke-width:0.793709;stroke-linecap:round;stroke-linejoin:round;stroke-dasharray:none;stroke-opacity:1"
         d="M 9.835742,4.0125931 A 5.2814906,5.2814906 0 0 1 8.3199837,8.3199838 v 0 A 5.2814906,5.2814906 0 0 1 4.0125929,9.8357422" /><path
         id="path45-1"
         style="display:inline;fill:none;fill-opacity:1;stroke:url(#linearGradient83-7);stroke-width:0.793638;stroke-linecap:round;stroke-linejoin:round;stroke-dasharray:none;stroke-opacity:1"
         d="M 8.1247313,4.1344605 A 3.8731296,3.8731296 0 0 1 6.9921455,6.9921456 v 0 A 3.8731296,3.8731296 0 0 1 4.1344603,8.1247314" /><path
         id="path46-3"
         style="display:inline;opacity:1;fill:none;fill-opacity:1;stroke:url(#linearGradient81-9);stroke-width:0.79364;stroke-linecap:round;stroke-linejoin:round;stroke-dasharray:none;stroke-opacity:1"
         d="M 6.3634943,4.2551458 A 2.4647369,2.4647369 0 0 1 5.6642832,5.6642833 v 0 A 2.4647369,2.4647369 0 0 1 4.2551457,6.3634945" /><path
         style="fill:#0057b8;fill-opacity:1;stroke:none;stroke-width:0.79375;stroke-linejoin:round;stroke-opacity:1"
         d="m 7.4924293,11.116724 c -0.812033,-1.27005 -0.622778,-3.940686 -0.622778,-3.940686 0,0 0.514285,0.162105 1.656339,-0.314378 1.142055,-0.476482 1.249219,-0.86323 1.249219,-0.86323 0,0 0.107164,0.386748 1.2492187,0.86323 1.142055,0.476483 1.656339,0.314378 1.656339,0.314378 0,0 0.189255,2.670636 -0.622778,3.940686 -0.812033,1.270049 -2.2827797,1.583153 -2.2827797,1.583153 0,0 -1.470747,-0.313104 -2.28278,-1.583153 z"
         id="path230-8"
         sodipodi:nodetypes="zczczczcz" /><path
         style="fill:#ffd700;fill-opacity:1;stroke:none;stroke-width:0.79375;stroke-linejoin:round;stroke-opacity:1"
         d="m 7.8761543,10.819604 c -0.675534,-1.05656 -0.518092,-3.112747 -0.518092,-3.112747 0,0 0.427836,0.04221 1.377916,-0.354172 0.950081,-0.396388 1.039231,-0.60022 1.039231,-0.60022 0,0 0.08915,0.203832 1.0392307,0.60022 0.95008,0.396388 1.377916,0.354172 1.377916,0.354172 0,0 0.157442,2.056187 -0.518092,3.112747 -0.675534,1.05656 -1.8990547,1.317032 -1.8990547,1.317032 0,0 -1.223521,-0.260472 -1.899055,-1.317032 z"
         id="path231-4"
         sodipodi:nodetypes="zczczczcz"
         inkscape:label="path49" /><path
         id="path232-8"
         style="fill:url(#linearGradient233-1);fill-opacity:1;stroke:none;stroke-width:0.79375;stroke-linejoin:round;stroke-opacity:1"
         d="M 9.7752093,5.9986 C 9.7750896,5.999031 9.6676085,6.38538 8.5261899,6.861597 7.3841359,7.33808 6.8694435,7.175789 6.8694435,7.175789 c 0,0 -0.1888152,2.670795 0.6232178,3.940845 C 8.3046943,12.386683 9.7752093,12.7 9.7752093,12.7 Z" /><path
         id="path233-0"
         style="fill:url(#linearGradient234-3);fill-opacity:1;stroke:none;stroke-width:0.79375;stroke-linejoin:round;stroke-opacity:1"
         d="m 9.7752093,5.9986 c 1.197e-4,4.31e-4 0.1076008,0.38678 1.2490197,0.862997 1.142054,0.476483 1.656746,0.314192 1.656746,0.314192 0,0 0.188815,2.670795 -0.623218,3.940845 C 11.245724,12.386683 9.7752093,12.7 9.7752093,12.7 Z" /></g></g><path
     d="M 63.19062,-28.406717 H 49.961464 l 6.614578,-13.229157 z m -6.173606,-2.645832 H 56.13507 v 0.881944 h 0.881944 z m 0,-0.881943 v -4.409719 H 56.13507 v 4.409719 z"
     id="text1"
     style="font-size:14.1111px;line-height:0;font-family:Fraunces;-inkscape-font-specification:Fraunces;fill:#806600;stroke:#898686;stroke-width:0.326001;stroke-linecap:square;stroke-linejoin:round"
     aria-label="" /><path
     d="m 78.769959,-42.498902 q 0.971516,0 1.87413,0.254937 0.902615,0.248046 1.681206,0.709689 0.785481,0.461642 1.426268,1.10932 0.647678,0.640787 1.10932,1.426268 0.461643,0.778591 0.709689,1.681205 0.254937,0.902615 0.254937,1.874131 0,0.971516 -0.254937,1.87413 -0.248046,0.902615 -0.709689,1.688096 -0.461642,0.778591 -1.10932,1.426268 -0.640787,0.640787 -1.426268,1.10243 -0.778591,0.461642 -1.681206,0.716579 -0.902614,0.248047 -1.87413,0.248047 -0.971516,0 -1.874131,-0.248047 -0.902614,-0.254937 -1.688095,-0.716579 -0.778591,-0.461643 -1.426268,-1.10243 -0.640788,-0.647677 -1.10243,-1.426268 -0.461643,-0.785481 -0.716579,-1.688096 -0.248047,-0.902614 -0.248047,-1.87413 0,-0.971516 0.248047,-1.874131 0.254936,-0.902614 0.716579,-1.681205 0.461642,-0.785481 1.10243,-1.426268 0.647677,-0.647678 1.426268,-1.10932 0.785481,-0.461643 1.688095,-0.709689 0.902615,-0.254937 1.874131,-0.254937 z m 4.154782,4.719777 -0.937065,-0.937065 -4.540633,4.540632 -1.894801,-1.894801 -0.937065,0.937065 2.831866,2.831866 z"
     id="text1-52"
     style="font-size:14.1111px;line-height:0;font-family:Fraunces;-inkscape-font-specification:Fraunces;fill:#806600;stroke:#898686;stroke-width:0.326001;stroke-linecap:square;stroke-linejoin:round"
     aria-label="" /><text
     xml:space="preserve"
     style="font-size:14.1111px;line-height:0;font-family:Fraunces;-inkscape-font-specification:Fraunces;writing-mode:lr-tb;direction:ltr;fill:#ff00ff;stroke:none;stroke-width:0.326001;stroke-linecap:square;stroke-linejoin:round"
     x="23.378284"
     y="-5.6338282"
     id="text1-2"><tspan
       sodipodi:role="line"
       id="tspan8"> </tspan></text><text
     style="font-size:15.011px;line-height:0;font-family:Fraunces;-inkscape-font-specification:Fraunces;fill:#ff0000;stroke-width:0.34679;stroke-linecap:square;stroke-linejoin:round"
     x="8.3621902"
     y="43.760452"
     id="text8"></text><path
     d="m 24.079401,-42.728448 q 0.909504,0 1.750107,0.234266 0.840603,0.234266 1.570962,0.668348 0.73725,0.427191 1.336696,1.026638 0.599447,0.599446 1.026638,1.336696 0.434082,0.730359 0.668348,1.570962 0.234266,0.840603 0.234266,1.750107 0,0.909505 -0.234266,1.750107 -0.234266,0.840603 -0.668348,1.577853 -0.427191,0.730359 -1.026638,1.329806 -0.599446,0.599446 -1.336696,1.033527 -0.730359,0.427192 -1.570962,0.661458 -0.840603,0.234267 -1.750107,0.234267 -0.909505,0 -1.750107,-0.234267 -0.840603,-0.234266 -1.577853,-0.661458 -0.730359,-0.434081 -1.329806,-1.033527 -0.599446,-0.599447 -1.033527,-1.329806 -0.427192,-0.73725 -0.661458,-1.577853 -0.234266,-0.840602 -0.234266,-1.750107 0,-0.909504 0.234266,-1.750107 0.234266,-0.840603 0.661458,-1.570962 0.434081,-0.73725 1.033527,-1.336696 0.599447,-0.599447 1.329806,-1.026638 0.73725,-0.434082 1.577853,-0.668348 0.840602,-0.234266 1.750107,-0.234266 z m 0,12.347212 q 0.792371,0 1.529621,-0.206705 0.73725,-0.206706 1.378037,-0.578776 0.640788,-0.37896 1.164442,-0.902614 0.523654,-0.523654 0.895724,-1.164442 0.37896,-0.640787 0.585666,-1.378037 0.206705,-0.73725 0.206705,-1.529621 0,-0.792371 -0.206705,-1.529621 -0.206706,-0.73725 -0.585666,-1.378037 -0.37207,-0.640787 -0.895724,-1.164442 -0.523654,-0.523654 -1.164442,-0.895724 -0.640787,-0.37896 -1.378037,-0.585666 -0.73725,-0.206705 -1.529621,-0.206705 -0.792371,0 -1.529621,0.206705 -0.73725,0.206706 -1.378037,0.585666 -0.640788,0.37207 -1.164442,0.895724 -0.523654,0.523655 -0.902614,1.164442 -0.37207,0.640787 -0.578776,1.378037 -0.206705,0.73725 -0.206705,1.529621 0,0.792371 0.206705,1.529621 0.206706,0.73725 0.578776,1.378037 0.37896,0.640788 0.902614,1.164442 0.523654,0.523654 1.164442,0.902614 0.640787,0.37207 1.378037,0.578776 0.73725,0.206705 1.529621,0.206705 z m -0.440972,-2.673392 h 0.881944 v 0.881944 h -0.881944 z m 0.440972,-6.614578 q 0.454752,0 0.854383,0.179145 0.399631,0.172255 0.695909,0.475423 0.303168,0.296278 0.475423,0.695908 0.179144,0.399631 0.179144,0.854383 0,0.413412 -0.130913,0.72347 -0.130914,0.303168 -0.330729,0.551215 -0.192925,0.248046 -0.420301,0.454752 -0.227376,0.199815 -0.427192,0.406521 -0.192925,0.199815 -0.323839,0.434082 -0.130913,0.227376 -0.130913,0.516764 v 0.440972 h -0.881944 v -0.440972 q 0,-0.413411 0.130914,-0.71658 0.130913,-0.310058 0.323838,-0.558105 0.199816,-0.248046 0.427192,-0.447862 0.227376,-0.206705 0.420301,-0.406521 0.199816,-0.206705 0.330729,-0.434081 0.130914,-0.227377 0.130914,-0.523655 0,-0.275607 -0.103353,-0.516763 -0.103353,-0.241157 -0.282498,-0.420302 -0.179145,-0.179145 -0.420301,-0.282497 -0.241157,-0.103353 -0.516764,-0.103353 -0.275607,0 -0.516764,0.103353 -0.241156,0.103352 -0.420301,0.282497 -0.179145,0.179145 -0.282498,0.420302 -0.103353,0.241156 -0.103353,0.516763 h -0.881943 q 0,-0.454752 0.172254,-0.854383 0.172255,-0.39963 0.468533,-0.695908 0.303168,-0.303168 0.702799,-0.475423 0.406521,-0.179145 0.861273,-0.179145 z"
     id="text1-1"
     style="font-size:14.1111px;line-height:0;font-family:Fraunces;-inkscape-font-specification:Fraunces;fill:#806600;stroke:#898686;stroke-width:0.326001;stroke-linecap:square;stroke-linejoin:round"
     aria-label="" /><path
     d="m -22.151522,-17.303863 q 0.828452,0 1.594143,0.213389 0.765689,0.21339 1.430962,0.608786 0.671548,0.389122 1.217573,0.935147 0.546025,0.546025 0.935147,1.217573 0.395396,0.665273 0.608786,1.430962 0.213389,0.765691 0.213389,1.594143 0,0.828452 -0.213389,1.5941417 -0.21339,0.7656907 -0.608786,1.4372389 -0.389122,0.6652722 -0.935147,1.2112972 -0.546025,0.546025 -1.217573,0.9414227 -0.665273,0.3891209 -1.430962,0.6025098 -0.765691,0.2133897 -1.594143,0.2133897 -0.828452,0 -1.594143,-0.2133897 -0.765689,-0.2133889 -1.437238,-0.6025098 -0.665272,-0.3953977 -1.211297,-0.9414227 -0.546025,-0.546025 -0.941423,-1.2112972 -0.38912,-0.6715482 -0.60251,-1.4372389 -0.213389,-0.7656897 -0.213389,-1.5941417 0,-0.828452 0.213389,-1.594143 0.21339,-0.765689 0.60251,-1.430962 0.395398,-0.671548 0.941423,-1.217573 0.546025,-0.546025 1.211297,-0.935147 0.671549,-0.395396 1.437238,-0.608786 0.765691,-0.213389 1.594143,-0.213389 z m 0,11.2468613 q 0.721757,0 1.393306,-0.188284 0.671547,-0.1882849 1.25523,-0.5271971 0.583681,-0.345188 1.060669,-0.8221754 0.476987,-0.4769873 0.815899,-1.0606691 0.345188,-0.5836827 0.533473,-1.2552309 0.188285,-0.6715478 0.188285,-1.3933048 0,-0.721757 -0.188285,-1.393306 -0.188285,-0.671548 -0.533473,-1.25523 -0.338912,-0.583681 -0.815899,-1.060669 -0.476988,-0.476987 -1.060669,-0.815899 -0.583683,-0.345189 -1.25523,-0.533473 -0.671549,-0.188285 -1.393306,-0.188285 -0.721757,0 -1.393306,0.188285 -0.671548,0.188284 -1.25523,0.533473 -0.583681,0.338912 -1.060669,0.815899 -0.476987,0.476988 -0.822176,1.060669 -0.338912,0.583682 -0.527196,1.25523 -0.188285,0.671549 -0.188285,1.393306 0,0.721757 0.188285,1.3933048 0.188284,0.6715482 0.527196,1.2552309 0.345189,0.5836818 0.822176,1.0606691 0.476988,0.4769874 1.060669,0.8221754 0.583682,0.3389122 1.25523,0.5271971 0.671549,0.188284 1.393306,0.188284 z m -0.401673,-2.4351464 h 0.803346 v 0.8033475 h -0.803346 z m 0.401673,-6.0251039 q 0.414226,0 0.778242,0.16318 0.364017,0.156904 0.633892,0.433054 0.27615,0.269875 0.433054,0.633892 0.16318,0.364017 0.16318,0.778242 0,0.376569 -0.119247,0.658996 -0.119246,0.276151 -0.301255,0.502092 -0.175732,0.225941 -0.382845,0.414225 -0.207113,0.182009 -0.389121,0.370293 -0.175733,0.182009 -0.294979,0.395398 -0.119248,0.207113 -0.119248,0.4707116 v 0.4016737 h -0.803346 v -0.4016737 q 0,-0.3765686 0.119246,-0.6527206 0.119247,-0.282426 0.294979,-0.508367 0.182008,-0.225942 0.389121,-0.40795 0.207113,-0.188285 0.382846,-0.370293 0.182008,-0.188285 0.301255,-0.395397 0.119247,-0.207113 0.119247,-0.476988 0,-0.251046 -0.09414,-0.470711 -0.09414,-0.219666 -0.257321,-0.382845 -0.16318,-0.16318 -0.382846,-0.257323 -0.219665,-0.09414 -0.470711,-0.09414 -0.251046,0 -0.470712,0.09414 -0.219665,0.09414 -0.382845,0.257323 -0.16318,0.163179 -0.257321,0.382845 -0.09414,0.219665 -0.09414,0.470711 h -0.803347 q 0,-0.414225 0.156904,-0.778242 0.156903,-0.364017 0.426777,-0.633892 0.276151,-0.27615 0.640168,-0.433054 0.370293,-0.16318 0.784519,-0.16318 z"
     id="text7"
     style="font-size:14.1111px;line-height:0;font-family:Fraunces;-inkscape-font-specification:Fraunces;fill:#ff00ff;stroke-width:0.296949;stroke-linecap:square;stroke-linejoin:round"
     aria-label="" /><path
     d="M -8.2832711,33.975105 H -20.283272 l 6,-12.000001 z m -5.5999999,-2.4 h -0.800001 v 0.8 h 0.800001 z m 0,-0.800001 v -4 h -0.800001 v 4 z"
     id="text5"
     style="font-size:14.1111px;line-height:0;font-family:Fraunces;-inkscape-font-specification:Fraunces;fill:#ff00ff;stroke-width:0.295712;stroke-linecap:square;stroke-linejoin:round"
     aria-label="" /></svg>
